<!-- Generator: Adobe Illustrator 19.0.0, SVG Export Plug-In  -->
<svg version="1.1"
	 xmlns="http://www.w3.org/2000/svg" xmlns:xlink="http://www.w3.org/1999/xlink" xmlns:a="http://ns.adobe.com/AdobeSVGViewerExtensions/3.0/"
	 x="0px" y="0px" width="53.4px" height="28.1px" viewBox="0 0 53.4 28.1"
	 style="overflow:scroll;enable-background:new 0 0 53.4 28.1;" xml:space="preserve">
<style type="text/css">
	.st0{fill:#FFFFFF;}
</style>
<defs>
</defs>
<g id="XMLID_15_">
	<path id="XMLID_23_" class="st0" d="M9,4.1v19.7c0,2.7-1.3,4-3.9,4H0V0.2h5.1C7.7,0.2,9,1.5,9,4.1z M6.2,4.6c0-0.6-0.1-1.1-0.4-1.4
		S5.2,2.8,4.7,2.8H2.8v22.4h1.9c0.5,0,0.8-0.1,1.1-0.4s0.4-0.7,0.4-1.4V4.6z"/>
	<path id="XMLID_21_" class="st0" d="M19.6,0.5c0.2,0.3,0.2,0.5,0.2,0.7v26.6h-2c-0.3,0-0.5-0.1-0.6-0.2S17,27.4,17,27.2V0.2h1.7
		C19.1,0.2,19.4,0.3,19.6,0.5z"/>
	<path id="XMLID_18_" class="st0" d="M35.9,1.1c0.7,0.7,1,1.5,1,2.4v21.1c0,0.5-0.1,0.9-0.3,1.3s-0.4,0.8-0.7,1.1
		c-0.3,0.3-0.7,0.6-1.1,0.7c-0.4,0.2-0.9,0.3-1.3,0.3h-2.2c-1,0-1.8-0.3-2.5-1c-0.7-0.7-1-1.5-1-2.5V3.5c0-1,0.3-1.8,1-2.5
		c0.7-0.7,1.5-1,2.5-1h2.2C34.4,0.1,35.2,0.4,35.9,1.1z M33.6,25.1c0.3-0.3,0.4-0.7,0.4-1.1V4c0-0.4-0.1-0.8-0.4-1.1
		c-0.3-0.3-0.7-0.4-1.1-0.4h-0.4c-0.4,0-0.7,0.2-1,0.5S30.6,3.6,30.6,4v20c0,0.4,0.1,0.8,0.4,1.1c0.3,0.3,0.6,0.4,1.1,0.5h0.4
		C32.9,25.6,33.3,25.4,33.6,25.1z"/>
	<path id="XMLID_16_" class="st0" d="M53.4,24.5c0,0.9-0.3,1.8-1,2.4c-0.7,0.7-1.5,1-2.4,1.1h-1.8c-1,0-1.8-0.3-2.5-1
		c-0.7-0.7-1-1.5-1-2.5V14v0V3.5c0-1,0.3-1.8,1-2.5c0.7-0.7,1.5-1,2.5-1H50c0.9,0.1,1.7,0.4,2.4,1.1c0.7,0.7,1,1.5,1,2.4v4.2
		c0,0.5-0.1,0.8-0.2,1s-0.3,0.4-0.5,0.5c-0.1,0.1-0.4,0.2-0.9,0.4c-0.4,0.2-0.8,0.4-1.2,0.5V4c0-0.4-0.1-0.7-0.4-1
		c-0.3-0.3-0.6-0.4-1.1-0.4c-0.4,0-0.8,0.1-1.1,0.4c-0.3,0.3-0.4,0.6-0.4,1v10v0v10c0,0.4,0.1,0.8,0.4,1.1c0.3,0.3,0.6,0.4,1.1,0.4
		c0.4,0,0.8-0.1,1.1-0.4c0.3-0.3,0.4-0.6,0.4-1.1v-3.7c0-0.5,0.1-0.8,0.2-1s0.3-0.4,0.5-0.5c0.1-0.1,0.4-0.2,0.9-0.4
		c0.4-0.2,0.8-0.4,1.2-0.5V24.5z"/>
</g>
</svg>
