<!-- Generator: Adobe Illustrator 19.0.0, SVG Export Plug-In  -->
<svg version="1.1"
	 xmlns="http://www.w3.org/2000/svg" xmlns:xlink="http://www.w3.org/1999/xlink" xmlns:a="http://ns.adobe.com/AdobeSVGViewerExtensions/3.0/"
	 x="0px" y="0px" width="187.3px" height="134.6px" viewBox="0 0 187.3 134.6"
	 style="overflow:scroll;enable-background:new 0 0 187.3 134.6;" xml:space="preserve">
<style type="text/css">
	.st0{fill:#FFFFFF;}
	.st1{fill:#FFFFFF;}
</style>
<defs>
</defs>
<g id="XMLID_40_">
	<path id="XMLID_48_" class="st0" d="M31.7,14.5v69.2c0,9.4-4.6,14.1-13.8,14.1H0V0.6h17.9C27.1,0.6,31.7,5.2,31.7,14.5z M21.7,16.2
		c0-2.3-0.5-3.9-1.4-4.9s-2.2-1.5-3.8-1.5H9.9v78.7h6.6c1.6,0,2.9-0.5,3.8-1.5c0.9-1,1.4-2.6,1.4-4.9V16.2z"/>
	<path id="XMLID_46_" class="st0" d="M68.7,1.9c0.6,0.9,0.9,1.7,0.9,2.5v93.3h-7.1c-1.1,0-1.9-0.2-2.2-0.7c-0.3-0.5-0.5-0.9-0.6-1.4
		v-95h6C67.1,0.6,68.2,1,68.7,1.9z"/>
	<path id="XMLID_43_" class="st0" d="M125.8,3.8c2.4,2.4,3.6,5.2,3.6,8.5v73.8c0,1.7-0.3,3.3-0.9,4.7c-0.6,1.4-1.5,2.7-2.6,3.8
		c-1.1,1.1-2.4,2-3.8,2.6c-1.5,0.7-3,1-4.6,1.1h-7.7c-3.4,0-6.3-1.2-8.7-3.5c-2.4-2.4-3.6-5.3-3.6-8.7V12.4c0-3.4,1.2-6.3,3.6-8.7
		c2.4-2.4,5.3-3.6,8.7-3.6h7.7C120.7,0.2,123.5,1.5,125.8,3.8z M117.9,88.2c1-1,1.6-2.3,1.6-3.8V14.1c0-1.5-0.5-2.8-1.6-3.8
		c-1-1-2.3-1.6-3.8-1.6h-1.6c-1.4,0.1-2.6,0.6-3.6,1.6s-1.5,2.3-1.5,3.8v70.3c0,1.5,0.5,2.8,1.5,3.8s2.2,1.5,3.8,1.6h1.4
		C115.6,89.8,116.8,89.2,117.9,88.2z"/>
	<path id="XMLID_41_" class="st0" d="M187.3,86.1c0,3.3-1.2,6.2-3.5,8.5c-2.3,2.4-5.1,3.6-8.4,3.8h-6.2c-3.4,0-6.3-1.2-8.7-3.6
		c-2.4-2.4-3.6-5.3-3.6-8.7V49.3v-0.1V12.4c0-3.4,1.2-6.3,3.6-8.7c2.4-2.4,5.3-3.6,8.7-3.6h6.2c3.3,0.2,6.1,1.5,8.4,3.8
		c2.3,2.4,3.5,5.2,3.5,8.5V27c0,1.6-0.3,2.8-0.9,3.6c-0.6,0.8-1.2,1.4-1.8,1.8c-0.5,0.2-1.5,0.6-3,1.3c-1.5,0.7-2.9,1.3-4.3,1.9
		V13.9c0-1.4-0.5-2.6-1.6-3.5c-1-0.9-2.3-1.3-3.7-1.3c-1.5,0-2.8,0.5-3.8,1.3c-1,0.9-1.5,2.1-1.5,3.5v35.2v0.1v35.2
		c0,1.4,0.5,2.7,1.5,3.7c1,1,2.2,1.6,3.8,1.6c1.4,0,2.6-0.5,3.7-1.6c1-1,1.6-2.3,1.6-3.7V71.4c0-1.6,0.3-2.8,0.9-3.6
		c0.6-0.8,1.2-1.4,1.8-1.8c0.5-0.2,1.5-0.6,3.1-1.3s3-1.3,4.2-1.9V86.1z"/>
</g>
<g id="XMLID_15_">
	<path id="XMLID_37_" class="st1" d="M8.7,113v17.8c0,2.4-1.2,3.6-3.5,3.6H0.6v-25h4.6C7.5,109.4,8.7,110.6,8.7,113z M6.2,113.4
		c0-0.6-0.1-1-0.4-1.3c-0.2-0.3-0.6-0.4-1-0.4H3.1V132h1.7c0.4,0,0.7-0.1,1-0.4c0.2-0.3,0.4-0.7,0.4-1.3V113.4z"/>
	<path id="XMLID_35_" class="st1" d="M31.8,134.4h-2.8l-2.2-17.2l-2.3,17.2h-2.8l3.8-25h1.3c0.6,0,0.9,0.1,1.1,0.4
		c0.2,0.3,0.3,0.6,0.3,0.9L31.8,134.4z"/>
	<path id="XMLID_33_" class="st1" d="M51,114.9c-0.1,0-0.4,0.2-0.8,0.3c-0.4,0.2-0.8,0.3-1.1,0.5v-2.8c0-0.4-0.1-0.7-0.4-1
		s-0.6-0.4-1-0.4c-0.4,0-0.7,0.1-0.9,0.4c-0.3,0.3-0.4,0.6-0.4,1v2.4c0,0.3,0.1,0.6,0.2,0.9c0.1,0.3,0.2,0.6,0.3,1.1
		c0.1,0.4,0.4,0.9,0.6,1.3l3,5.7c0.2,0.5,0.4,0.9,0.5,1.4c0.1,0.4,0.3,0.8,0.4,1.3c0.1,0.5,0.2,0.9,0.2,1.3v3.1
		c0,0.9-0.3,1.6-0.9,2.2c-0.6,0.6-1.4,0.9-2.2,0.9H47c-0.8,0-1.6-0.4-2.2-1s-0.9-1.3-0.9-2.2v-2.6c0-0.4,0.1-0.7,0.2-0.9
		c0.1-0.2,0.3-0.4,0.5-0.5c0.1,0,0.4-0.2,0.8-0.3c0.4-0.2,0.8-0.3,1.1-0.5v4.4c0,0.4,0.1,0.7,0.4,0.9c0.3,0.3,0.6,0.4,0.9,0.4
		c0.4,0,0.7-0.1,1-0.4c0.3-0.3,0.4-0.6,0.4-1v-2.8c0-0.3-0.1-0.6-0.2-1c-0.1-0.3-0.2-0.6-0.3-1.1s-0.3-0.9-0.6-1.4l-3.1-5.7
		c-0.2-0.5-0.4-0.9-0.5-1.4c-0.1-0.4-0.3-0.8-0.4-1.3s-0.2-0.9-0.2-1.3v-2.6c0-0.4,0.1-0.9,0.3-1.2c0.2-0.4,0.4-0.7,0.7-1
		s0.6-0.5,1-0.7c0.4-0.2,0.8-0.3,1.2-0.3h1.6c0.4,0,0.8,0.1,1.2,0.3s0.7,0.4,1,0.7c0.3,0.3,0.5,0.7,0.7,1.1c0.2,0.4,0.3,0.8,0.3,1.2
		v0.9c0,0.4-0.1,0.7-0.2,0.9S51.2,114.8,51,114.9z"/>
	<path id="XMLID_31_" class="st1" d="M73.6,109.8c0.1,0.2,0.2,0.4,0.2,0.7v24h-2.6v-10.9c0-0.4-0.3-0.5-0.6-0.5h-2.8v11.4h-2.6v-24
		c0-0.2,0.1-0.4,0.2-0.7c0.1-0.2,0.4-0.3,0.8-0.3h1.5v10.1c0,0.4,0.1,0.6,0.2,0.7c0.1,0.1,0.4,0.2,0.7,0.2h2.5v-11h1.5
		C73.2,109.4,73.4,109.5,73.6,109.8z"/>
	<path id="XMLID_27_" class="st1" d="M94.8,121.9c0.3,0.1,0.5,0.2,0.7,0.4c0.2,0.2,0.4,0.4,0.5,0.6c0.1,0.3,0.2,0.6,0.2,1v7.3
		c0,0.9-0.3,1.6-0.9,2.2c-0.6,0.6-1.4,0.9-2.2,0.9h-4.6V122v-0.1v0v0v-12.4H93c0.4,0,0.8,0.1,1.2,0.2s0.7,0.4,1,0.7
		c0.3,0.3,0.5,0.6,0.7,1c0.2,0.4,0.3,0.8,0.3,1.2v7.3c0,0.4-0.1,0.7-0.2,1c-0.1,0.2-0.3,0.5-0.5,0.6C95.3,121.7,95,121.8,94.8,121.9
		z M93.6,113.3c0-0.5-0.1-0.8-0.4-1c-0.3-0.2-0.6-0.3-0.9-0.3h-1.3v8.8h1.3c0.4,0,0.7-0.1,0.9-0.3c0.3-0.2,0.4-0.6,0.4-1.1V113.3z
		 M93.6,124.5c0-0.6-0.1-0.9-0.4-1.1c-0.3-0.2-0.6-0.3-0.9-0.3h-1.3v8.8h1.3c0.4,0,0.7-0.1,0.9-0.3c0.3-0.2,0.4-0.5,0.4-1V124.5z"/>
	<path id="XMLID_24_" class="st1" d="M117.8,110.3c0.6,0.6,0.9,1.3,0.9,2.2v19c0,0.4-0.1,0.8-0.2,1.2c-0.2,0.4-0.4,0.7-0.7,1
		c-0.3,0.3-0.6,0.5-1,0.7s-0.8,0.3-1.2,0.3h-2c-0.9,0-1.6-0.3-2.2-0.9s-0.9-1.4-0.9-2.2v-19c0-0.9,0.3-1.6,0.9-2.2
		c0.6-0.6,1.4-0.9,2.2-0.9h2C116.5,109.3,117.2,109.7,117.8,110.3z M115.8,131.9c0.3-0.3,0.4-0.6,0.4-1v-18.1c0-0.4-0.1-0.7-0.4-1
		c-0.3-0.3-0.6-0.4-1-0.4h-0.4c-0.4,0-0.7,0.2-0.9,0.4c-0.3,0.3-0.4,0.6-0.4,1V131c0,0.4,0.1,0.7,0.4,1c0.3,0.3,0.6,0.4,1,0.4h0.4
		C115.2,132.3,115.5,132.2,115.8,131.9z"/>
	<path id="XMLID_22_" class="st1" d="M141.7,134.4h-2.8l-2.2-17.2l-2.3,17.2h-2.8l3.8-25h1.3c0.6,0,0.9,0.1,1.1,0.4
		c0.2,0.3,0.3,0.6,0.3,0.9L141.7,134.4z"/>
	<path id="XMLID_19_" class="st1" d="M162.6,134.4h-2.6v-9.1c0-0.6-0.1-1.1-0.4-1.3c-0.3-0.2-0.6-0.3-0.9-0.3h-1.3v10.7h-2.6v-25
		h4.6c0.4,0,0.8,0.1,1.2,0.2s0.7,0.4,1,0.7c0.3,0.3,0.5,0.6,0.7,1c0.2,0.4,0.3,0.8,0.3,1.2v7.7c0,0.5-0.1,0.9-0.2,1.2
		s-0.2,0.5-0.3,0.7c-0.1,0.2-0.3,0.3-0.5,0.4c0.2,0.1,0.3,0.3,0.5,0.5c0.1,0.2,0.2,0.4,0.3,0.7c0.1,0.3,0.2,0.7,0.2,1.1V134.4z
		 M159.7,121c0.3-0.2,0.4-0.6,0.4-1.1v-6.6c0-0.5-0.1-0.8-0.4-1c-0.3-0.2-0.6-0.3-0.9-0.3h-1.3v9.3h1.3
		C159.1,121.3,159.4,121.2,159.7,121z"/>
	<path id="XMLID_16_" class="st1" d="M185.3,113v17.8c0,2.4-1.2,3.6-3.5,3.6h-4.6v-25h4.6C184.1,109.4,185.3,110.6,185.3,113z
		 M182.7,113.4c0-0.6-0.1-1-0.4-1.3c-0.2-0.3-0.6-0.4-1-0.4h-1.7V132h1.7c0.4,0,0.7-0.1,1-0.4c0.2-0.3,0.4-0.7,0.4-1.3V113.4z"/>
</g>
</svg>
