<!-- Generator: Adobe Illustrator 19.0.0, SVG Export Plug-In  -->
<svg version="1.1"
	 xmlns="http://www.w3.org/2000/svg" xmlns:xlink="http://www.w3.org/1999/xlink" xmlns:a="http://ns.adobe.com/AdobeSVGViewerExtensions/3.0/"
	 x="0px" y="0px" width="140.2px" height="28.1px" viewBox="0 0 140.2 28.1"
	 style="overflow:scroll;enable-background:new 0 0 140.2 28.1;" xml:space="preserve">
<style type="text/css">
	.st0{fill:#FFFFFF;}
</style>
<defs>
</defs>
<g id="XMLID_15_">
	<path id="XMLID_38_" class="st0" d="M9,4.1v19.7c0,2.7-1.3,4-3.9,4H0V0.2h5.1C7.7,0.2,9,1.5,9,4.1z M6.2,4.6c0-0.6-0.1-1.1-0.4-1.4
		S5.2,2.8,4.7,2.8H2.8v22.4h1.9c0.5,0,0.8-0.1,1.1-0.4s0.4-0.7,0.4-1.4V4.6z"/>
	<path id="XMLID_36_" class="st0" d="M26.5,27.9h-3.1L20.9,8.7l-2.5,19.1h-3.1l4.2-27.7H21c0.6,0,1,0.2,1.2,0.5
		c0.2,0.3,0.3,0.7,0.3,1L26.5,27.9z"/>
	<path id="XMLID_33_" class="st0" d="M39.8,6.2c-0.1,0.1-0.4,0.2-0.9,0.4c-0.4,0.2-0.8,0.4-1.2,0.5V4c0-0.4-0.1-0.8-0.4-1.1
		c-0.3-0.3-0.7-0.4-1.1-0.4c-0.4,0-0.8,0.1-1.1,0.4c-0.3,0.3-0.4,0.7-0.4,1.1v2.6c0,0.3,0.1,0.7,0.2,1.1C35,8,35.1,8.4,35.3,8.9
		c0.2,0.5,0.4,1,0.7,1.5l3.3,6.3c0.2,0.5,0.4,1,0.6,1.5c0.2,0.4,0.3,0.9,0.4,1.4c0.1,0.5,0.2,1,0.2,1.5v3.5c0,1-0.3,1.8-1,2.5
		c-0.7,0.7-1.5,1-2.5,1h-1.8c-0.9-0.1-1.7-0.4-2.4-1.1c-0.7-0.7-1-1.5-1-2.4v-2.8c0-0.5,0.1-0.8,0.2-1c0.2-0.2,0.3-0.4,0.5-0.5
		c0.1-0.1,0.4-0.2,0.8-0.4c0.4-0.2,0.8-0.4,1.2-0.5v4.8c0,0.4,0.1,0.8,0.4,1c0.3,0.3,0.6,0.4,1.1,0.4c0.4,0,0.8-0.1,1.1-0.4
		c0.3-0.3,0.4-0.6,0.4-1.1V21c0-0.3-0.1-0.7-0.2-1.1c-0.1-0.3-0.2-0.7-0.3-1.2s-0.4-1-0.7-1.5l-3.4-6.4c-0.2-0.5-0.4-1-0.6-1.5
		c-0.2-0.4-0.3-0.9-0.4-1.4c-0.1-0.5-0.2-1-0.2-1.5V3.6c0-0.5,0.1-0.9,0.3-1.4c0.2-0.4,0.4-0.8,0.7-1.2s0.7-0.6,1.1-0.8
		C34.4,0.1,34.9,0,35.4,0h1.8c0.5,0,0.9,0.1,1.3,0.3c0.4,0.2,0.8,0.5,1.1,0.8c0.3,0.3,0.5,0.7,0.7,1.2s0.3,0.9,0.3,1.4v1.1
		c0,0.5-0.1,0.8-0.2,1C40.1,6,40,6.1,39.8,6.2z"/>
	<path id="XMLID_31_" class="st0" d="M56.7,0.5c0.2,0.2,0.2,0.5,0.2,0.7v26.6h-2.8V15.8c-0.1-0.4-0.3-0.6-0.7-0.6h-3.1v12.7h-2.8
		V1.3c0-0.2,0.1-0.5,0.2-0.7c0.2-0.2,0.5-0.4,0.9-0.4h1.7v11.2c0,0.4,0.1,0.7,0.2,0.8c0.2,0.1,0.4,0.2,0.7,0.2h2.8V0.2h1.7
		C56.2,0.2,56.5,0.3,56.7,0.5z"/>
	<path id="XMLID_27_" class="st0" d="M72.1,14c0.3,0.1,0.6,0.3,0.8,0.5c0.2,0.2,0.4,0.4,0.6,0.7c0.2,0.3,0.2,0.6,0.2,1.1v8.1
		c0,1-0.3,1.8-1,2.5c-0.7,0.7-1.5,1-2.5,1H65V14.1V14v0v0V0.2h5.2c0.5,0,0.9,0.1,1.4,0.3s0.8,0.4,1.1,0.7s0.6,0.7,0.7,1.1
		c0.2,0.4,0.3,0.9,0.3,1.4v8.1c0,0.5-0.1,0.8-0.2,1.1c-0.2,0.3-0.3,0.5-0.6,0.7C72.6,13.7,72.4,13.9,72.1,14z M70.9,4.4
		c0-0.5-0.1-0.9-0.4-1.1C70.1,3.1,69.8,3,69.4,3h-1.5v9.7h1.5c0.4,0,0.8-0.1,1.1-0.3c0.3-0.2,0.4-0.7,0.4-1.3V4.4z M70.9,16.9
		c0-0.6-0.1-1-0.4-1.3c-0.3-0.2-0.6-0.3-1.1-0.3h-1.5V25h1.5c0.4,0,0.8-0.1,1.1-0.3c0.3-0.2,0.4-0.6,0.4-1.1V16.9z"/>
	<path id="XMLID_24_" class="st0" d="M89.6,1.1c0.7,0.7,1,1.5,1,2.4v21.1c0,0.5-0.1,0.9-0.3,1.3s-0.4,0.8-0.7,1.1
		c-0.3,0.3-0.7,0.6-1.1,0.7c-0.4,0.2-0.9,0.3-1.3,0.3H85c-1,0-1.8-0.3-2.5-1c-0.7-0.7-1-1.5-1-2.5V3.5c0-1,0.3-1.8,1-2.5
		C83.2,0.3,84,0,85,0h2.2C88.1,0.1,88.9,0.4,89.6,1.1z M87.3,25.1c0.3-0.3,0.4-0.7,0.4-1.1V4c0-0.4-0.1-0.8-0.4-1.1
		c-0.3-0.3-0.7-0.4-1.1-0.4h-0.4c-0.4,0-0.7,0.2-1,0.5S84.3,3.6,84.3,4v20c0,0.4,0.1,0.8,0.4,1.1c0.3,0.3,0.6,0.4,1.1,0.5h0.4
		C86.6,25.6,87,25.4,87.3,25.1z"/>
	<path id="XMLID_22_" class="st0" d="M108,27.9h-3.1l-2.5-19.1l-2.5,19.1h-3.1L101,0.2h1.5c0.6,0,1,0.2,1.2,0.5
		c0.2,0.3,0.3,0.7,0.3,1L108,27.9z"/>
	<path id="XMLID_19_" class="st0" d="M123.1,27.9h-2.8V17.7c0-0.7-0.1-1.2-0.4-1.4c-0.3-0.2-0.6-0.4-1.1-0.4h-1.5v11.9h-2.8V0.2h5.2
		c0.5,0,0.9,0.1,1.4,0.3s0.8,0.4,1.1,0.7s0.6,0.7,0.7,1.1c0.2,0.4,0.3,0.9,0.3,1.4v8.6c0,0.5-0.1,1-0.2,1.3
		c-0.1,0.3-0.2,0.6-0.4,0.7c-0.2,0.2-0.3,0.3-0.5,0.4c0.2,0.1,0.4,0.3,0.5,0.5c0.1,0.2,0.3,0.5,0.4,0.8c0.1,0.3,0.2,0.8,0.2,1.3
		V27.9z M119.8,13c0.3-0.2,0.4-0.7,0.4-1.3V4.4c0-0.5-0.1-0.9-0.4-1.1c-0.3-0.2-0.6-0.3-1.1-0.3h-1.5v10.3h1.5
		C119.2,13.3,119.5,13.2,119.8,13z"/>
	<path id="XMLID_16_" class="st0" d="M140.2,4.1v19.7c0,2.7-1.3,4-3.9,4h-5.1V0.2h5.1C138.9,0.2,140.2,1.5,140.2,4.1z M137.3,4.6
		c0-0.6-0.1-1.1-0.4-1.4s-0.6-0.4-1.1-0.4H134v22.4h1.9c0.5,0,0.8-0.1,1.1-0.4s0.4-0.7,0.4-1.4V4.6z"/>
</g>
</svg>
