<?xml version="1.0" encoding="utf-8"?>
<!-- Generator: Adobe Illustrator 19.0.0, SVG Export Plug-In . SVG Version: 6.00 Build 0)  -->
<svg version="1.1" id="Layer_1" xmlns="http://www.w3.org/2000/svg" xmlns:xlink="http://www.w3.org/1999/xlink" x="0px" y="0px"
	 viewBox="0 0 22.3 22.3" style="enable-background:new 0 0 22.3 22.3;" xml:space="preserve">
<style type="text/css">
	.st0{fill:#EA495F;}
</style>
<path id="XMLID_16_" class="st0" d="M14.5,2.2c-3.1,0-5.6,2.5-5.6,5.6c0,0.3,0,0.7,0.1,1l-6.8,6.8v3.3c0,0.6,0.5,1.1,1.1,1.1h1.1
	v-1.1h2.2v-2.2h2.2v-2.2h2.2l1.4-1.4c0.6,0.2,1.2,0.3,1.9,0.3c3.1,0,5.6-2.5,5.6-5.6S17.5,2.2,14.5,2.2z M16.1,7.8
	c-0.9,0-1.7-0.7-1.7-1.7s0.7-1.7,1.7-1.7c0.9,0,1.7,0.7,1.7,1.7S17.1,7.8,16.1,7.8z"/>
</svg>
