<?xml version="1.0" encoding="utf-8"?>
<!-- Generator: Adobe Illustrator 19.0.0, SVG Export Plug-In . SVG Version: 6.00 Build 0)  -->
<svg version="1.1" id="Layer_1" xmlns="http://www.w3.org/2000/svg" xmlns:xlink="http://www.w3.org/1999/xlink" x="0px" y="0px"
	 viewBox="0 0 22.3 22.3" style="enable-background:new 0 0 22.3 22.3;" xml:space="preserve">
<style type="text/css">
	.st0{fill:#EA495F;}
</style>
<path id="XMLID_15_" class="st0" d="M6.7,4.5C6.7,2,8.7,0,11.1,0s4.5,2,4.5,4.5s-2,4.5-4.5,4.5S6.7,6.9,6.7,4.5z M17.1,10.4h-0.8
	l-4.6,9.4l1.7-8.6l-2.2-2.2l-2.2,2.2l1.7,8.6L6,10.4H5.2c-3,0-3,2-3,4.5v7.4H20v-7.4C20,12.4,20,10.4,17.1,10.4z"/>
<path id="XMLID_16_" class="st0" d="M-315.6,257.9c-3.1,0-5.6,2.5-5.6,5.6c0,0.3,0,0.7,0.1,1l-6.8,6.8v3.3c0,0.6,0.5,1.1,1.1,1.1
	h1.1v-1.1h2.2v-2.2h2.2v-2.2h2.2l1.4-1.4c0.6,0.2,1.2,0.3,1.9,0.3c3.1,0,5.6-2.5,5.6-5.6C-310.1,260.4-312.6,257.9-315.6,257.9z
	 M-314,263.4c-0.9,0-1.7-0.7-1.7-1.7c0-0.9,0.7-1.7,1.7-1.7s1.7,0.7,1.7,1.7C-312.3,262.7-313,263.4-314,263.4z"/>
</svg>
